<svg width="49" height="40" viewBox="0 0 49 40" fill="none" xmlns="http://www.w3.org/2000/svg">
<path d="M48.2563 5.28543C46.5167 6.05627 44.6479 6.5771 42.6833 6.81252C44.7104 5.59958 46.227 3.69057 46.95 1.44168C45.0455 2.57291 42.9611 3.36917 40.7875 3.79585C39.3258 2.23515 37.3897 1.2007 35.2799 0.853089C33.17 0.50548 31.0044 0.864167 29.1193 1.87346C27.2341 2.88276 25.735 4.48619 24.8545 6.43482C23.974 8.38345 23.7615 10.5682 24.25 12.65C20.391 12.4563 16.6159 11.4532 13.1696 9.70607C9.72338 7.95889 6.68301 5.5066 4.24584 2.50835C3.4125 3.94585 2.93334 5.61252 2.93334 7.38752C2.93241 8.98542 3.32591 10.5589 4.07892 11.9682C4.83193 13.3776 5.92117 14.5793 7.25 15.4667C5.70891 15.4176 4.20182 15.0012 2.85417 14.2521V14.3771C2.85402 16.6182 3.62924 18.7904 5.0483 20.525C6.46737 22.2596 8.44286 23.4499 10.6396 23.8938C9.20997 24.2807 7.71112 24.3377 6.25625 24.0604C6.87604 25.9888 8.08333 27.6751 9.7091 28.8832C11.3349 30.0913 13.2977 30.7608 15.3229 30.7979C11.8851 33.4967 7.63935 34.9606 3.26875 34.9542C2.49455 34.9544 1.721 34.9092 0.952087 34.8188C5.3885 37.6712 10.5528 39.1851 15.8271 39.1792C33.6813 39.1792 43.4417 24.3917 43.4417 11.5667C43.4417 11.15 43.4313 10.7292 43.4125 10.3125C45.311 8.93955 46.9498 7.23938 48.2521 5.29168L48.2563 5.28543Z" fill="#E8E8E8" fill-opacity="0.35"/>
</svg>
