<svg width="40" height="40" viewBox="0 0 40 40" fill="none" xmlns="http://www.w3.org/2000/svg">
<path d="M20 13.4913C16.416 13.4913 13.4912 16.4161 13.4912 20C13.4912 23.584 16.416 26.5088 20 26.5088C23.584 26.5088 26.5088 23.584 26.5088 20C26.5088 16.4161 23.584 13.4913 20 13.4913ZM39.5215 20C39.5215 17.3047 39.5459 14.6338 39.3946 11.9434C39.2432 8.81841 38.5303 6.04497 36.2451 3.75981C33.9551 1.46977 31.1866 0.761767 28.0616 0.6104C25.3662 0.459033 22.6953 0.483447 20.0049 0.483447C17.3096 0.483447 14.6387 0.459033 11.9483 0.6104C8.82326 0.761767 6.04982 1.47466 3.76467 3.75981C1.47463 6.04985 0.76662 8.81841 0.615252 11.9434C0.463885 14.6387 0.488299 17.3096 0.488299 20C0.488299 22.6905 0.463885 25.3663 0.615252 28.0567C0.76662 31.1817 1.47951 33.9551 3.76467 36.2403C6.05471 38.5303 8.82326 39.2383 11.9483 39.3897C14.6436 39.5411 17.3145 39.5166 20.0049 39.5166C22.7002 39.5166 25.3711 39.5411 28.0616 39.3897C31.1866 39.2383 33.96 38.5254 36.2451 36.2403C38.5352 33.9502 39.2432 31.1817 39.3946 28.0567C39.5508 25.3663 39.5215 22.6954 39.5215 20ZM20 30.0147C14.458 30.0147 9.98537 25.542 9.98537 20C9.98537 14.4581 14.458 9.9854 20 9.9854C25.542 9.9854 30.0147 14.4581 30.0147 20C30.0147 25.542 25.542 30.0147 20 30.0147ZM30.4248 11.9141C29.1309 11.9141 28.086 10.8692 28.086 9.57524C28.086 8.2813 29.1309 7.23637 30.4248 7.23637C31.7188 7.23637 32.7637 8.2813 32.7637 9.57524C32.7641 9.88249 32.7039 10.1868 32.5864 10.4707C32.469 10.7547 32.2968 11.0127 32.0795 11.2299C31.8623 11.4472 31.6043 11.6195 31.3203 11.7369C31.0364 11.8543 30.7321 11.9145 30.4248 11.9141Z" fill="#E8E8E8" fill-opacity="0.35"/>
</svg>
